<?xml version="1.0" encoding="UTF-8"?><svg id="Layer_2" xmlns="http://www.w3.org/2000/svg" viewBox="0 0 252 140.23"><defs><style>.cls-1{fill:#c9b79c;}.cls-2{fill:#e0d2bd;}.cls-3{fill:#212227;}.cls-4{fill:#71816d;}</style></defs><g id="Layer_1-2"><path class="cls-3" d="m241.33,51.65s-42.68,12.19-27.09,52.81c0,0-34.48-9.75-46.79,18.69,0,0-18.85-11.96-31.7-1.37l.91-1.88h-21.33l.91,1.88c-12.85-10.59-31.7,1.37-31.7,1.37-12.31-28.44-46.79-18.69-46.79-18.69,15.6-40.63-27.09-52.81-27.09-52.81C35.3,13.46,0,11.02,0,11.02,57.46-22.29,94.4,30.52,94.4,30.52c-27.5,46.87,22.48,46.61,29.55,46.35.53-.02.82-.04.82-.04h2.46s.29.02.82.04c7.07.26,57.05.52,29.55-46.35,0,0,36.94-52.81,94.4-19.5,0,0-35.3,2.44-10.67,40.63Z"/><path class="cls-4" d="m119.36,124.98c-2.03-2.54-4.29-4.31-6.67-5.5-3.8-4.78-6.17-11.58-6.17-19.12,0-10.35,4.47-19.29,10.94-23.55,2.98.17,5.32.12,6.49.08.53-.02.82-.04.82-.04h2.46s.29.02.82.04c1.17.04,3.51.09,6.49-.08,6.48,4.26,10.94,13.2,10.94,23.55,0,7.54-2.37,14.34-6.17,19.12-2.38,1.19-4.65,2.96-6.67,5.5l-.49.64c-1.63,2.19-3.08,4.89-4.28,8.22l-1.86,6.39-1.86-6.39c-1.21-3.33-2.66-6.04-4.28-8.22l-.49-.64Z"/><path class="cls-2" d="m169.92,44.34s-.7,24.06-9.11,34.87c-1.23,1.58-2.91,2.75-4.81,3.45-3.78,1.41-11.14,3.84-16.06,3.49-.52.59-1.08,1.15-1.68,1.67-2.17,6.47-6.84,10.94-12.25,10.94s-10.08-4.48-12.25-10.94c-.6-.52-1.17-1.08-1.68-1.67-4.88.34-12.17-2.04-15.97-3.45-1.96-.73-3.71-1.93-4.97-3.58-8.36-10.86-9.05-34.78-9.05-34.78,26.83-1.29,35.4,11.87,37.77,17.26,1.67-.56,3.47-.89,5.34-.98.26-.02.53-.03.8-.03s.54.02.8.03c1.87.08,3.67.41,5.34.98,2.36-5.39,10.93-18.55,37.77-17.26Z"/><path class="cls-1" d="m127.46,91.79s-.87-2.09.8-2.66,2.55-3.31,2.55-3.31c0,0,2.84,3.46.58,6.33,0,0-1.89,1.37-2.62,1.22l-1.31-1.58Z"/><path class="cls-1" d="m124.54,91.79s.87-2.09-.8-2.66-2.55-3.31-2.55-3.31c0,0-2.84,3.46-.58,6.33,0,0,1.89,1.37,2.62,1.22l1.31-1.58Z"/><path class="cls-1" d="m114.03,65.81l-1.66,7.09c-.91.72-1.73,2.14-2.13,3.87-.39,1.7-.27,3.28.23,4.27l-.06.26c-2.75,2.27-10.74-.31-14.4-1.66-1.44-.54-2.72-1.42-3.64-2.62-6.12-7.96-6.63-25.5-6.63-25.5,24.67-1.19,28.29,14.29,28.29,14.29Z"/><path class="cls-1" d="m137.97,65.81l1.66,7.09c.91.72,1.73,2.14,2.13,3.87.39,1.7.27,3.28-.23,4.27l.06.26c2.75,2.27,10.74-.31,14.4-1.66,1.44-.54,2.72-1.42,3.64-2.62,6.12-7.96,6.63-25.5,6.63-25.5-24.67-1.19-28.29,14.29-28.29,14.29Z"/><path class="cls-3" d="m119.78,81.33s-2.38-1.89-6.43-1.09c0,0,1.62.61,2.63,2.05,1,1.43,4.15-.1,3.8-.96Z"/><path class="cls-3" d="m132.22,81.33s2.38-1.89,6.43-1.09c0,0-1.62.61-2.63,2.05s-4.15-.1-3.8-.96Z"/></g></svg>