<svg width="31" height="31" viewBox="0 0 31 31" fill="none" xmlns="http://www.w3.org/2000/svg">
<rect x="2" y="3" width="26.4792" height="26.4792" fill="#763FC7"/>
<path d="M28.7053 0H2.28867C1.02324 0 0 0.999024 0 2.23418V28.7598C0 29.9949 1.02324 31 2.28867 31H28.7053C29.9707 31 31 29.9949 31 28.7658V2.23418C31 0.999024 29.9707 0 28.7053 0ZM9.19707 26.4166H4.59551V11.6189H9.19707V26.4166ZM6.89629 9.60273C5.41895 9.60273 4.22617 8.40996 4.22617 6.93867C4.22617 5.46738 5.41895 4.27461 6.89629 4.27461C8.36758 4.27461 9.56035 5.46738 9.56035 6.93867C9.56035 8.40391 8.36758 9.60273 6.89629 9.60273ZM26.4166 26.4166H21.8211V19.2236C21.8211 17.5102 21.7908 15.3002 19.4295 15.3002C17.0379 15.3002 16.6746 17.1711 16.6746 19.1025V26.4166H12.0852V11.6189H16.493V13.6412H16.5535C17.165 12.4787 18.6666 11.2496 20.9008 11.2496C25.5568 11.2496 26.4166 14.3133 26.4166 18.2973V26.4166V26.4166Z" fill="#763FC7"/>
<path d="M7.74721 22.9821C7.67168 23.0199 7.58526 23.0304 7.50277 23.0119C7.42027 22.9934 7.34681 22.9471 7.29496 22.8807C7.15272 22.7287 7.12353 22.5187 7.23295 22.4245C7.34236 22.3304 7.53932 22.3738 7.68156 22.5259C7.8238 22.678 7.85662 22.888 7.74721 22.9821Z" fill="white"/>
<path d="M9.04774 24.8931C8.95423 25.0013 8.76438 24.9721 8.60853 24.8259C8.45268 24.6797 8.41583 24.4808 8.50934 24.3756C8.60285 24.2703 8.7927 24.2995 8.95422 24.4428C9.11574 24.5861 9.14691 24.7879 9.04774 24.8931V24.8931Z" fill="white"/>
<path d="M11.0418 25.274C11.0418 25.4498 10.9022 25.6004 10.7227 25.604C10.5431 25.6076 10.396 25.4641 10.396 25.2883C10.396 25.1126 10.5356 24.9619 10.7152 24.9583C10.8947 24.9547 11.0418 25.0946 11.0418 25.274Z" fill="white"/>
<path fill-rule="evenodd" clip-rule="evenodd" d="M15.558 3C12.3382 3.00168 9.22403 4.14957 6.77225 6.23841C4.32047 8.32725 2.69101 11.2208 2.17522 14.4017C1.65943 17.5827 2.29093 20.8435 3.95684 23.6012C5.62274 26.3588 8.2144 28.4335 11.2684 29.4542C11.9422 29.5801 12.1959 29.1598 12.1959 28.8024C12.1959 28.445 12.1825 27.4088 12.178 26.2759C8.4049 27.0963 7.60763 24.6732 7.60763 24.6732C6.99226 23.0997 6.10289 22.6861 6.10289 22.6861C4.87215 21.8455 6.19498 21.8612 6.19498 21.8612C7.55822 21.9579 8.27466 23.2616 8.27466 23.2616C9.48294 25.3363 11.4481 24.7361 12.2206 24.3855C12.3419 23.5066 12.6945 22.9087 13.0831 22.5693C10.0691 22.2276 6.90242 21.0632 6.90242 15.8619C6.88374 14.5129 7.38388 13.2084 8.29936 12.2182C8.16011 11.8765 7.69521 10.4964 8.43186 8.62172C8.43186 8.62172 9.57052 8.25758 12.1623 10.0131C14.3853 9.40466 16.7307 9.40466 18.9538 10.0131C21.5433 8.25758 22.6797 8.62172 22.6797 8.62172C23.4186 10.4919 22.9537 11.872 22.8144 12.2182C23.7328 13.2085 24.234 14.5153 24.2136 15.8664C24.2136 21.079 21.0402 22.2276 18.0217 22.5625C18.5068 22.9851 18.9403 23.81 18.9403 25.0778C18.9403 26.894 18.9246 28.3551 18.9246 28.8024C18.9246 29.1643 19.1694 29.5869 19.8566 29.4542C22.911 28.4334 25.5029 26.3583 27.1687 23.6002C28.8346 20.8421 29.4658 17.5807 28.9494 14.3995C28.433 11.2183 26.8028 8.32471 24.3502 6.23623C21.8976 4.14775 18.7827 3.00062 15.5625 3H15.558Z" fill="white"/>
</svg>
