<?xml version="1.0" encoding="UTF-8" standalone="no"?>
<!DOCTYPE svg PUBLIC "-//W3C//DTD SVG 20010904//EN" "http://www.w3.org/TR/2001/REC-SVG-20010904/DTD/svg10.dtd">
<svg version="1.0" xmlns="http://www.w3.org/2000/svg" width="1008.000000pt" height="1008.000000pt" viewBox="0 0 1008.000000 1008.000000" preserveAspectRatio="xMidYMid meet">
<metadata>
Created by potrace 1.14, written by Peter Selinger 2001-2017
</metadata>
<g transform="translate(0.000000,1008.000000) scale(0.100000,-0.100000)" fill="#000000" stroke="none">
<path d="M1308 7835 c-2 -2 -34 -6 -73 -9 -38 -4 -77 -8 -85 -11 -8 -2 -35 -6 -60 -9 -25 -3 -56 -9 -70 -12 -14 -3 -34 -7 -45 -9 -11 -2 -58 -13 -105 -25 -47 -12 -89 -23 -95 -24 -42 -10 -72 -20 -80 -26 -5 -3 -30 -12 -55 -19 -49 -14 -197 -71 -270 -103 -68 -30 -234 -112 -240 -118 -3 -3 -31 -18 -62 -34 -50 -26 -63 -40 -40 -41 9 -1 90 -14 127 -21 15 -3 36 -9 46 -14 10 -6 25 -10 33 -10 27 0 192 -75 248 -113 151 -101 244 -233 279 -398 20 -91 14 -262 -12 -364 -17 -68 -17 -70 -19 -72 -3 -3 -3 -3 -14 -53 -5 -19 -12 -39 -15 -45 -4 -5 -16 -32 -26 -60 -26 -74 -126 -270 -190 -375 -31 -51 -55 -94 -53 -95 2 -1 30 -12 63 -24 71 -25 70 -25 207 -90 247 -116 495 -304 633 -476 22 -27 43 -52 46 -55 4 -3 25 -34 48 -70 22 -36 44 -69 49 -75 42 -53 133 -305 148 -409 2 -17 7 -53 11 -81 12 -92 4 -399 -12 -425 -2 -3 -6 -21 -9 -40 -5 -33 -14 -74 -20 -95 -2 -5 -6 -23 -10 -40 -4 -16 -14 -47 -22 -68 -8 -20 -12 -37 -9 -37 2 0 -2 -15 -10 -34 -8 -18 -11 -36 -8 -40 4 -3 2 -6 -4 -6 -6 0 -13 -11 -15 -25 -4 -21 -2 -24 13 -20 9 3 28 8 41 10 13 3 37 8 53 12 17 3 37 7 45 8 8 1 38 5 65 9 170 24 502 25 595 1 8 -2 35 -7 60 -10 131 -18 350 -99 480 -179 119 -72 247 -186 323 -286 23 -30 45 -56 50 -58 4 -2 7 -9 7 -15 0 -6 6 -18 14 -26 8 -9 39 -63 69 -119 30 -57 57 -100 61 -94 11 17 263 135 316 147 3 1 37 11 75 22 162 49 334 67 474 48 74 -9 77 -10 151 -35 240 -83 429 -283 538 -570 19 -52 44 -129 73 -232 7 -27 16 -48 20 -48 6 0 19 40 21 60 0 3 5 16 10 30 5 14 12 34 14 45 18 90 144 375 165 375 5 0 9 6 9 13 1 31 142 177 228 235 79 54 164 92 227 103 6 1 21 5 33 10 23 9 133 22 182 22 117 0 267 -24 395 -63 86 -27 265 -104 317 -136 21 -13 40 -24 44 -24 12 0 30 28 73 112 54 107 148 232 237 319 73 69 176 149 194 149 5 0 10 3 10 8 0 15 195 106 300 139 107 34 248 62 335 67 17 1 35 4 40 7 14 7 283 3 370 -5 63 -6 171 -21 220 -31 43 -9 67 -14 85 -20 16 -5 13 10 -21 116 -22 67 -41 131 -44 143 -2 11 -6 32 -9 46 -19 88 -27 131 -32 175 -9 75 -9 292 -1 355 13 97 15 104 32 169 68 262 220 498 451 702 86 75 279 208 337 230 15 6 27 15 27 20 0 5 5 9 11 9 6 0 44 15 83 34 96 46 168 78 181 80 10 1 76 27 83 32 2 1 -9 22 -25 46 -15 23 -33 52 -39 63 -6 11 -21 38 -34 60 -125 217 -191 389 -237 615 -18 90 -7 252 25 355 39 127 158 265 299 345 81 47 269 115 343 125 73 10 79 11 85 16 10 10 -302 168 -440 222 -49 20 -103 41 -120 48 -16 7 -34 13 -40 14 -5 2 -39 13 -75 25 -36 12 -72 23 -80 25 -8 2 -52 13 -98 24 -95 25 -169 40 -227 47 -22 2 -46 7 -54 10 -48 17 -463 25 -606 12 -38 -3 -70 -7 -70 -8 0 -2 -9 -4 -20 -5 -61 -7 -133 -20 -163 -29 -9 -3 -33 -8 -52 -11 -71 -12 -312 -88 -395 -125 -22 -10 -65 -29 -95 -43 -95 -42 -195 -91 -206 -102 -6 -6 -30 -19 -53 -29 -22 -11 -41 -23 -41 -28 0 -4 -5 -8 -11 -8 -5 0 -49 -26 -96 -57 -47 -32 -92 -62 -101 -68 -9 -5 -22 -14 -29 -20 -7 -5 -23 -18 -35 -27 -27 -21 -97 -76 -156 -125 -136 -113 -350 -332 -451 -462 l-49 -64 24 -36 c13 -20 24 -41 24 -47 0 -7 3 -14 8 -16 18 -8 166 -332 192 -420 8 -24 6 -28 -13 -29 -97 -5 -259 -25 -327 -40 -25 -5 -55 -12 -67 -14 -13 -3 -33 -7 -45 -10 -45 -9 -213 -69 -219 -78 -3 -5 -8 -8 -10 -6 -7 3 -98 -40 -152 -74 -104 -62 -213 -156 -301 -257 -22 -26 -73 -103 -101 -155 -15 -28 -29 -51 -30 -53 -1 -1 -32 5 -69 13 -117 27 -269 23 -397 -10 -25 -6 -29 -2 -59 56 -150 295 -515 530 -924 595 -21 3 -48 7 -59 9 -31 7 -158 18 -202 19 -22 1 -43 5 -46 10 -13 18 97 273 200 463 28 50 47 93 43 95 -4 2 -25 26 -47 53 -61 77 -68 85 -98 119 -160 178 -367 365 -557 501 -30 22 -59 43 -65 48 -10 8 -57 37 -155 99 -30 18 -71 42 -90 51 -19 10 -44 23 -55 29 -11 6 -27 15 -35 20 -17 9 -63 31 -70 33 -3 0 -24 11 -47 23 -23 12 -49 22 -58 22 -8 0 -15 4 -15 10 0 5 -3 9 -7 9 -5 -1 -11 0 -15 1 -5 1 -11 3 -15 4 -5 1 -24 9 -44 18 -20 9 -83 30 -140 48 -57 17 -113 34 -124 38 -24 7 -16 5 -90 20 -33 7 -78 17 -100 23 -22 5 -60 12 -85 14 -25 3 -58 8 -75 10 -35 6 -472 15 -477 10z"/>
</g>
</svg>