<?xml version="1.0" encoding="UTF-8"?><svg id="Layer_2" xmlns="http://www.w3.org/2000/svg" viewBox="0 0 79.76 67.92"><defs><style>.cls-1{fill:pink;}.cls-2{fill:#fca7bc;}.cls-3{fill:#8ed2dd;}.cls-4{fill:#add8e6;}</style></defs><g id="Layer_1-2"><path class="cls-3" d="M16.18,10.69v-3.63h25.43v3.63l-11.81,1.36h-1.82l-11.81-1.36Zm13.63,52.23l11.81,1.36v3.63H16.18v-3.63l11.81-1.36h1.82Zm-5-27.7c0-9.36,0-18.8-.27-28.16h8.72c-.27,9.17-.27,18.62-.27,28.16v2.73c0,11.17,0,20.62,.27,29.97h-8.72c.27-9.17,.27-18.62,.27-28.16v-4.54Zm4.09,3.63v-4.18h38.15v4.18H28.89ZM54.33,10.69v-3.63h25.43v3.63l-11.81,1.36h-1.82l-11.81-1.36Zm13.63,52.23l11.81,1.36v3.63h-25.43v-3.63l11.81-1.36h1.82Zm-5-27.7c0-9.36,0-18.8-.27-28.16h8.72c-.27,9.17-.27,18.62-.27,28.16v4.54c0,9.36,0,18.8,.27,28.16h-8.72c.27-9.17,.27-18.62,.27-29.97v-2.73Z"/><path class="cls-2" d="M49.52,.35V3.64L10.6,63.33H3.65v-3.29L42.66,.35h6.86ZM4.59,17.09L5.34,.35H46.32V5.05H8.63L13.8,.35l-3.57,16.73H4.59Zm47,29.51l-.75,16.73H6.94v-4.7H47.54l-5.17,4.7,3.57-16.73h5.64Z"/><path class="cls-1" d="M45.87,0V3.29L6.96,62.98H0v-3.29L39.01,0h6.86ZM.94,16.73L1.69,0H42.67V4.7H4.98L10.15,0l-3.57,16.73H.94Zm47,29.51l-.75,16.73H3.29v-4.7H43.9l-5.17,4.7,3.57-16.73h5.64Z"/><path class="cls-4" d="M11.18,10.69v-3.63h25.43v3.63l-11.81,1.36h-1.82l-11.81-1.36Zm13.63,52.23l11.81,1.36v3.63H11.18v-3.63l11.81-1.36h1.82Zm-5-27.7c0-9.36,0-18.8-.27-28.16h8.72c-.27,9.17-.27,18.62-.27,28.16v2.73c0,11.17,0,20.62,.27,29.97h-8.72c.27-9.17,.27-18.62,.27-28.16v-4.54Zm4.09,3.63v-4.18H62.04v4.18H23.89ZM49.33,10.69v-3.63h25.43v3.63l-11.81,1.36h-1.82l-11.81-1.36Zm13.63,52.23l11.81,1.36v3.63h-25.43v-3.63l11.81-1.36h1.82Zm-5-27.7c0-9.36,0-18.8-.27-28.16h8.72c-.27,9.17-.27,18.62-.27,28.16v4.54c0,9.36,0,18.8,.27,28.16h-8.72c.27-9.17,.27-18.62,.27-29.97v-2.73Z"/></g></svg>